<svg width="52" height="39" viewBox="0 0 52 39" fill="none" xmlns="http://www.w3.org/2000/svg">
<path d="M0 19.6031C0 8.89944 7.02828 0.222412 15.6981 0.222412H36.3019C44.9718 0.222412 52 8.89944 52 19.6031V38.9838H15.6981C7.02828 38.9838 0 30.3068 0 19.6031Z" fill="#252160"/>
<path d="M36.3019 7.48999H15.6981C10.2795 7.48999 5.88678 12.9131 5.88678 19.6029C5.88678 26.2927 10.2795 31.7159 15.6981 31.7159H36.3019C41.7205 31.7159 46.1132 26.2927 46.1132 19.6029C46.1132 12.9131 41.7205 7.48999 36.3019 7.48999Z" fill="#F8F8F8"/>
<path d="M15.6981 25.6593C18.4075 25.6593 20.6038 22.9477 20.6038 19.6029C20.6038 16.258 18.4075 13.5464 15.6981 13.5464C12.9888 13.5464 10.7925 16.258 10.7925 19.6029C10.7925 22.9477 12.9888 25.6593 15.6981 25.6593Z" fill="black"/>
<path d="M13.7358 18.3916C14.2777 18.3916 14.717 17.8493 14.717 17.1803C14.717 16.5113 14.2777 15.969 13.7358 15.969C13.194 15.969 12.7547 16.5113 12.7547 17.1803C12.7547 17.8493 13.194 18.3916 13.7358 18.3916Z" fill="white"/>
<path d="M37.283 25.6593C39.9924 25.6593 42.1887 22.9477 42.1887 19.6029C42.1887 16.258 39.9924 13.5464 37.283 13.5464C34.5737 13.5464 32.3774 16.258 32.3774 19.6029C32.3774 22.9477 34.5737 25.6593 37.283 25.6593Z" fill="black"/>
<path d="M35.3207 18.3916C35.8626 18.3916 36.3019 17.8493 36.3019 17.1803C36.3019 16.5113 35.8626 15.969 35.3207 15.969C34.7789 15.969 34.3396 16.5113 34.3396 17.1803C34.3396 17.8493 34.7789 18.3916 35.3207 18.3916Z" fill="white"/>
</svg>
