<svg width="84" height="88" viewBox="0 0 84 88" fill="none" xmlns="http://www.w3.org/2000/svg">
<path d="M40.352 0.927516C41.0148 -0.0967486 42.5134 -0.0967491 43.1763 0.927515L50.7243 12.5912C51.1569 13.2597 51.9989 13.5333 52.7417 13.2467L65.704 8.24721C66.8423 7.80817 68.0547 8.68903 67.9889 9.90729L67.2396 23.78C67.1966 24.5751 67.717 25.2913 68.4864 25.4962L81.9118 29.0705C83.0907 29.3844 83.5538 30.8096 82.7845 31.7566L74.0241 42.5394C73.522 43.1574 73.5221 44.0427 74.0241 44.6607L82.7845 55.4436C83.5538 56.3905 83.0907 57.8158 81.9117 58.1296L68.4864 61.7039C67.717 61.9088 67.1966 62.625 67.2396 63.4201L67.9889 77.2928C68.0547 78.5111 66.8423 79.392 65.704 78.9529L52.7417 73.9534C51.9989 73.6669 51.1569 73.9404 50.7243 74.6089L43.1763 86.2726C42.5134 87.2969 41.0148 87.2969 40.352 86.2726L32.804 74.6089C32.3714 73.9404 31.5294 73.6669 30.7865 73.9534L17.8243 78.9529C16.686 79.392 15.4736 78.5111 15.5394 77.2928L16.2887 63.4201C16.3316 62.625 15.8112 61.9088 15.0418 61.7039L1.6165 58.1296C0.43754 57.8158 -0.0255601 56.3905 0.743745 55.4436L9.50414 44.6607C10.0062 44.0427 10.0062 43.1574 9.50413 42.5394L0.743745 31.7566C-0.0255601 30.8096 0.437541 29.3844 1.6165 29.0705L15.0418 25.4962C15.8112 25.2913 16.3316 24.5751 16.2887 23.78L15.5394 9.90729C15.4736 8.68904 16.686 7.80817 17.8243 8.24721L30.7865 13.2467C31.5294 13.5333 32.3714 13.2597 32.804 12.5912L40.352 0.927516Z" fill="url(#linear)" />
<defs>
<linearGradient id="linear" x1="17.5426" y1="2.33374" x2="77.6479" y2="88.4548" gradientUnits="userSpaceOnUse">
<stop stop-color="#26E9CF"/>
<stop offset="1" stop-color="#25CDE1"/>
</linearGradient>
</defs>
</svg>
