<svg width="26" height="26" viewBox="0 0 26 26" fill="none" xmlns="http://www.w3.org/2000/svg">
<path d="M13.3008 14.2003V20.4582H5.47853V14.2003H13.3008ZM13.3008 12.6359H5.47853C5.0636 12.6359 4.66568 12.8007 4.37228 13.0941C4.07889 13.3875 3.91406 13.7854 3.91406 14.2003V20.4582C3.91406 20.8731 4.07889 21.271 4.37228 21.5644C4.66568 21.8578 5.0636 22.0226 5.47853 22.0226H13.3008C13.7158 22.0226 14.1137 21.8578 14.4071 21.5644C14.7005 21.271 14.8653 20.8731 14.8653 20.4582V14.2003C14.8653 13.7854 14.7005 13.3875 14.4071 13.0941C14.1137 12.8007 13.7158 12.6359 13.3008 12.6359V12.6359Z" fill="#252160"/>
<path d="M21.9055 5.59583V9.50699H14.0831V5.59583H21.9055ZM21.9055 4.03137H14.0831C13.6682 4.03137 13.2703 4.1962 12.9769 4.48959C12.6835 4.78299 12.5187 5.18091 12.5187 5.59583V9.50699C12.5187 9.92191 12.6835 10.3198 12.9769 10.6132C13.2703 10.9066 13.6682 11.0715 14.0831 11.0715H21.9055C22.3204 11.0715 22.7183 10.9066 23.0117 10.6132C23.3051 10.3198 23.4699 9.92191 23.4699 9.50699V5.59583C23.4699 5.18091 23.3051 4.78299 23.0117 4.48959C22.7183 4.1962 22.3204 4.03137 21.9055 4.03137V4.03137Z" fill="#252160"/>
<path d="M21.9054 14.2003V18.1115H17.9943V14.2003H21.9054ZM21.9054 12.6359H17.9943C17.5794 12.6359 17.1814 12.8007 16.888 13.0941C16.5946 13.3875 16.4298 13.7854 16.4298 14.2003V18.1115C16.4298 18.5264 16.5946 18.9243 16.888 19.2177C17.1814 19.5111 17.5794 19.6759 17.9943 19.6759H21.9054C22.3203 19.6759 22.7183 19.5111 23.0117 19.2177C23.3051 18.9243 23.4699 18.5264 23.4699 18.1115V14.2003C23.4699 13.7854 23.3051 13.3875 23.0117 13.0941C22.7183 12.8007 22.3203 12.6359 21.9054 12.6359Z" fill="#252160"/>
<path d="M9.38968 5.59583V9.50699H5.47852V5.59583H9.38968ZM9.38968 4.03137H5.47852C5.0636 4.03137 4.66568 4.1962 4.37228 4.48959C4.07889 4.78299 3.91406 5.18091 3.91406 5.59583V9.50699C3.91406 9.92191 4.07889 10.3198 4.37228 10.6132C4.66568 10.9066 5.0636 11.0715 5.47852 11.0715H9.38968C9.8046 11.0715 10.2025 10.9066 10.4959 10.6132C10.7893 10.3198 10.9541 9.92191 10.9541 9.50699V5.59583C10.9541 5.18091 10.7893 4.78299 10.4959 4.48959C10.2025 4.1962 9.8046 4.03137 9.38968 4.03137V4.03137Z" fill="#252160"/>
</svg>
