<svg width="727" height="1048" viewBox="0 0 727 1048" fill="none" xmlns="http://www.w3.org/2000/svg">
<path d="M560.606 61.497C552.599 73.6825 554.649 86.7823 564.337 93.1474C574.024 99.5125 586.861 96.1949 594.868 84.0093L597.012 80.7462C605.019 68.5606 602.968 55.4609 593.281 49.0958C583.594 42.7307 570.756 46.0483 562.75 58.2339L560.606 61.497ZM572.906 160.096C564.899 172.281 566.95 185.381 576.637 191.746C586.324 198.111 599.162 194.794 607.168 182.608L609.312 179.345C617.319 167.159 615.268 154.06 605.581 147.694C595.894 141.329 583.056 144.647 575.05 156.833L572.906 160.096ZM578.313 158.977C585.147 148.576 595.636 145.832 603.437 150.958C611.238 156.083 612.883 166.8 606.049 177.201L603.905 180.464C597.071 190.865 586.582 193.609 578.781 188.483C570.98 183.357 569.335 172.641 576.169 162.24L578.313 158.977ZM566.013 60.3779C572.847 49.9768 583.336 47.2333 591.137 52.3589C598.938 57.4844 600.583 68.2011 593.749 78.6022L591.605 81.8653C584.771 92.2663 574.281 95.0099 566.481 89.8843C558.68 84.7587 557.035 74.0421 563.869 63.641L566.013 60.3779ZM512.925 147.84L516.8 150.386L656.993 93.002L653.118 90.456L512.925 147.84Z" fill="white" fill-opacity="0.05"/>
<path d="M207.624 486.711C209.811 501.126 220.091 509.501 231.551 507.762C243.011 506.023 250.344 494.976 248.156 480.56L247.57 476.7C245.383 462.285 235.103 453.91 223.643 455.649C212.183 457.388 204.85 468.435 207.038 482.851L207.624 486.711ZM282.667 551.838C284.854 566.253 295.134 574.628 306.594 572.889C318.054 571.15 325.387 560.103 323.199 545.687L322.614 541.827C320.426 527.412 310.146 519.037 298.686 520.776C287.226 522.515 279.894 533.562 282.081 547.978L282.667 551.838ZM285.941 547.392C284.074 535.087 290.044 526.036 299.272 524.636C308.5 523.236 316.886 530.108 318.753 542.413L319.339 546.273C321.206 558.578 315.237 567.629 306.008 569.029C296.78 570.429 288.394 563.557 286.527 551.252L285.941 547.392ZM210.898 482.265C209.031 469.96 215.001 460.909 224.229 459.509C233.457 458.109 241.843 464.981 243.71 477.286L244.296 481.146C246.163 493.451 240.194 502.502 230.965 503.902C221.737 505.302 213.351 498.43 211.484 486.125L210.898 482.265ZM229.857 582.806L234.441 582.11L300.38 445.732L295.796 446.428L229.857 582.806Z" fill="white" fill-opacity="0.05"/>
<path d="M449.017 729.56L452.878 728.975L448.118 697.61L477.761 709.156L479.179 705.485L449.536 693.94L474.419 674.12L471.977 671.036L447.093 690.855L442.334 659.49L438.474 660.076L443.233 691.441L413.59 679.895L412.173 683.566L441.816 695.111L416.932 714.93L419.375 718.015L444.258 698.196L449.017 729.56Z" fill="white" fill-opacity="0.05"/>
<path d="M666.14 445.807L670 445.221L665.241 413.857L694.884 425.402L696.301 421.732L666.659 410.186L691.542 390.367L689.099 387.282L664.216 407.101L659.457 375.737L655.596 376.323L660.356 407.687L630.713 396.142L629.295 399.812L658.938 411.358L634.055 431.177L636.497 434.262L661.381 414.443L666.14 445.807Z" fill="white" fill-opacity="0.05"/>
<path d="M497.716 265.686L493.23 262.738L461.894 262.88L459.348 266.755L491.564 266.607L492.175 267.009L425.844 367.961L429.108 370.105L497.716 265.686ZM491.025 412.832C510.91 425.898 536.445 413.476 558.287 380.234C580.129 346.991 581.395 318.624 561.51 305.559C541.626 292.493 516.091 304.915 494.249 338.157C472.407 371.4 471.141 399.767 491.025 412.832ZM493.169 409.569C475.376 397.878 476.876 371.708 497.512 340.301C518.148 308.894 541.572 297.13 559.366 308.822C577.16 320.513 575.66 346.683 555.024 378.09C534.388 409.497 510.963 421.261 493.169 409.569Z" fill="white" fill-opacity="0.05"/>
<path d="M689.716 177.686L685.23 174.738L653.894 174.88L651.348 178.755L683.564 178.607L684.175 179.009L617.844 279.961L621.108 282.105L689.716 177.686ZM683.025 324.832C702.91 337.898 728.445 325.476 750.287 292.234C772.129 258.991 773.395 230.624 753.51 217.559C733.626 204.493 708.091 216.915 686.249 250.157C664.407 283.4 663.141 311.767 683.025 324.832ZM685.169 321.569C667.376 309.878 668.876 283.708 689.512 252.301C710.148 220.894 733.572 209.13 751.366 220.822C769.16 232.513 767.66 258.683 747.024 290.09C726.388 321.497 702.963 333.261 685.169 321.569Z" fill="white" fill-opacity="0.05"/>
<path d="M209.021 683.557L203.713 684.363L180.497 705.41L181.193 709.994L205.059 688.354L205.783 688.245L223.905 807.671L227.765 807.085L209.021 683.557ZM302.381 797.49C325.904 793.921 336.598 767.616 330.631 728.29C324.663 688.964 306.647 667.016 283.124 670.585C259.6 674.155 248.906 700.459 254.874 739.786C260.841 779.112 278.857 801.06 302.381 797.49ZM301.795 793.63C280.744 796.824 264.372 776.355 258.734 739.2C253.096 702.045 262.659 677.64 283.709 674.445C304.76 671.251 321.133 691.721 326.771 728.876C332.408 766.031 322.845 790.436 301.795 793.63Z" fill="white" fill-opacity="0.05"/>
<path d="M483.365 603.057L558.056 613.4L558.592 609.532L489.943 600.026L490.01 599.543L532.502 561.329C554.658 541.425 561.859 532.568 563.759 518.85C566.302 500.479 554.399 485.035 535.786 482.458C516.449 479.78 500.879 492.59 498.394 510.538L502.261 511.073C504.445 495.301 518.089 483.949 535.251 486.325C551.688 488.601 562.134 502.119 559.891 518.315C558.184 530.642 551.594 539.091 529.936 558.51L483.8 599.915L483.365 603.057ZM621.58 623.921C645.147 627.185 662.877 605.004 668.333 565.604C673.789 526.203 662.754 500.04 639.186 496.776C615.619 493.513 597.889 515.693 592.433 555.093C586.977 594.494 598.012 620.657 621.58 623.921ZM622.115 620.053C601.025 617.133 591.146 592.854 596.3 555.629C601.455 518.404 617.561 497.723 638.651 500.644C659.741 503.564 669.62 527.843 664.466 565.068C659.311 602.293 643.205 622.974 622.115 620.053Z" fill="white" fill-opacity="0.05"/>
<path d="M514.427 955.161L576.902 912.939L574.716 909.704L517.296 948.51L517.022 948.106L523.094 891.282C526.274 861.668 525.711 850.267 517.957 838.793C507.572 823.427 488.396 819.893 472.828 830.415C456.653 841.346 453.632 861.28 463.777 876.293L467.012 874.106C458.096 860.914 460.659 843.351 475.014 833.65C488.763 824.358 505.567 827.433 514.722 840.979C521.691 851.291 522.435 861.98 519.301 890.9L512.651 952.533L514.427 955.161ZM631.188 878.314C650.901 864.991 649.267 836.643 626.995 803.687C604.723 770.731 579.029 758.642 559.316 771.965C539.603 785.287 541.237 813.636 563.509 846.592C585.781 879.548 611.475 891.636 631.188 878.314ZM629.002 875.079C611.362 887.001 587.787 875.542 566.744 844.405C545.701 813.269 543.861 787.121 561.502 775.2C579.142 763.278 602.717 774.736 623.76 805.873C644.803 837.009 646.643 863.157 629.002 875.079Z" fill="white" fill-opacity="0.05"/>
<path d="M358.483 126.635L361.746 128.779L369.283 117.308C388.447 128.804 408.56 125.522 418.945 109.717C427.387 96.8685 424.454 83.3347 410.057 65.9181L406.167 61.1725L437.859 12.9401C452.972 23.6006 456.468 40.2778 448.291 54.8334L451.554 56.9774C460.886 40.5529 456.868 21.561 440.003 9.67698L447.507 -1.74381L444.244 -3.88784L436.706 7.58394C419.363 -2.57096 399.807 0.63926 390.092 15.4251C382.152 27.5087 384.647 41.2654 397.681 57.2021L401.263 61.5267L368.131 111.952C351.913 100.639 347.338 84.493 354.995 70.6177L351.732 68.4737C342.869 84.1844 347.933 102.696 365.987 115.215L358.483 126.635ZM371.427 114.045L403.856 64.6905L407.097 68.6452C420.523 84.9853 423.052 96.356 415.682 107.573C406.336 121.798 388.722 124.386 371.427 114.045ZM403.574 58.0087L400.64 54.475C388.666 40.0372 386.387 28.1741 393.355 17.5691C401.964 4.46582 419.138 1.88065 434.562 10.847L403.574 58.0087Z" fill="white" fill-opacity="0.05"/>
<path d="M100.797 670.245L104.657 669.659L102.598 656.088C124.536 651.833 137.306 635.95 134.468 617.252C132.162 602.052 120.935 593.945 98.5858 590.61L92.5208 589.68L83.8625 532.62C102.23 530.45 115.976 540.52 119.62 556.813L123.48 556.227C119.446 537.772 103.764 526.33 83.2768 528.76L81.2266 515.249L77.3664 515.835L79.4257 529.406C59.7372 533.443 47.3352 548.9 49.9895 566.392C52.1586 580.686 63.2079 589.253 83.5541 592.398L89.1091 593.221L98.1609 652.874C78.5361 655.296 64.3428 646.343 60.766 630.904L56.9058 631.49C60.8121 649.1 76.9504 659.486 98.7467 656.734L100.797 670.245ZM102.012 652.227L93.1523 593.841L98.2065 594.617C119.114 597.8 128.594 604.568 130.608 617.838C133.162 634.666 121.788 648.363 102.012 652.227ZM88.4775 589.059L83.9334 588.391C65.3767 585.653 55.7534 578.352 53.8497 565.806C51.4975 550.304 62.5456 536.904 80.0115 533.266L88.4775 589.059Z" fill="white" fill-opacity="0.05"/>
<path d="M723.797 806.274L727.657 805.688L725.598 792.117C747.536 787.863 760.306 771.98 757.468 753.282C755.162 738.082 743.935 729.974 721.586 726.64L715.521 725.709L706.863 668.65C725.23 666.48 738.976 676.55 742.62 692.842L746.48 692.257C742.446 673.802 726.764 662.36 706.277 664.79L704.227 651.279L700.366 651.865L702.426 665.436C682.737 669.472 670.335 684.929 672.989 702.421C675.159 716.716 686.208 725.282 706.554 728.427L712.109 729.25L721.161 788.903C701.536 791.326 687.343 782.372 683.766 766.934L679.906 767.519C683.812 785.13 699.95 795.515 721.747 792.763L723.797 806.274ZM725.012 788.257L716.152 729.871L721.206 730.647C742.114 733.83 751.594 740.598 753.608 753.867C756.162 770.696 744.788 784.392 725.012 788.257ZM711.478 725.089L706.933 724.421C688.377 721.683 678.753 714.381 676.85 701.835C674.497 686.334 685.546 672.934 703.011 669.296L711.478 725.089Z" fill="white" fill-opacity="0.05"/>
<path d="M202.939 304.356L205.163 307.564L216.444 299.743C229.918 317.57 249.8 322.047 265.342 311.271C277.976 302.511 280.315 288.862 273.474 267.326L271.641 261.47L319.068 228.585C329.1 244.123 326.106 260.898 313.08 271.341L315.305 274.549C330.101 262.805 333.475 243.688 322.277 226.36L333.507 218.574L331.282 215.365L320.002 223.186C307.713 207.283 288.375 202.949 273.836 213.03C261.954 221.268 259.125 234.96 265.254 254.614L266.96 259.965L217.377 294.344C206.566 277.788 208.359 261.103 220.649 251.097L218.424 247.888C204.33 259.146 202.106 278.208 214.169 296.569L202.939 304.356ZM219.652 297.518L268.182 263.868L269.71 268.748C276.052 288.923 274.146 300.415 263.117 308.062C249.13 317.761 231.825 313.576 219.652 297.518ZM270.419 257.566L269.019 253.192C263.311 235.324 265.633 223.469 276.061 216.238C288.945 207.305 305.84 211.328 316.793 225.411L270.419 257.566Z" fill="white" fill-opacity="0.05"/>
<path d="M316.502 371.728L418.21 488.576L421.939 486.759L320.232 369.911L316.502 371.728Z" fill="white" fill-opacity="0.05"/>
</svg>
