<svg width="42" height="32" viewBox="0 0 42 32" fill="none" xmlns="http://www.w3.org/2000/svg">
<path d="M37.4986 3.26262C39.8648 5.77586 41.1353 8.59465 41.1353 13.164C41.1353 21.2045 35.4908 28.4111 27.2826 31.9742L25.2311 28.8086C32.8925 24.6642 34.3904 19.2863 34.9877 15.8955C33.754 16.5341 32.139 16.7569 30.5562 16.6099C26.4119 16.2263 23.1451 12.824 23.1451 8.59465C23.1451 6.46216 23.9922 4.41702 25.5001 2.90912C27.008 1.40123 29.0532 0.554106 31.1857 0.554106C33.6507 0.554106 36.0077 1.67978 37.4986 3.26262ZM14.5257 3.26262C16.8919 5.77586 18.1623 8.59465 18.1623 13.164C18.1623 21.2045 12.5178 28.4111 4.30957 31.9742L2.25809 28.8086C9.91957 24.6642 11.4174 19.2863 12.0147 15.8955C10.7811 16.5341 9.16606 16.7569 7.58323 16.6099C3.4389 16.2263 0.172146 12.824 0.172146 8.59465C0.172146 6.46216 1.01927 4.41702 2.52716 2.90912C4.03506 1.40123 6.0802 0.554106 8.21268 0.554106C10.6777 0.554106 13.0347 1.67978 14.5257 3.26262Z" fill="#32B5FF"/>
</svg>
