<svg width="150" height="25" viewBox="0 0 150 25" fill="none" xmlns="http://www.w3.org/2000/svg">
<g clip-path="url(#clip0_74:718)">
<path d="M137.929 15.5629L140.724 17.2751L139.964 14.0796L142.452 11.9422L139.187 11.6794L137.929 8.64615V15.5629ZM137.929 17.8963L132.095 21.4701L133.681 14.8003L128.491 10.3405L135.304 9.79296L137.929 3.46161L140.554 9.79296L147.368 10.3405L142.176 14.8003L143.762 21.4701L137.929 17.8963Z" fill="#FF9900"/>
</g>
<g clip-path="url(#clip1_74:718)">
<path d="M12.8822 17.8964L7.04867 21.4702L8.63457 14.8004L3.44415 10.3405L10.2572 9.79302L12.8822 3.46167L15.5072 9.79302L22.3212 10.3405L17.1298 14.8004L18.7157 21.4702L12.8822 17.8964Z" fill="#FF9900"/>
</g>
<g clip-path="url(#clip2_74:718)">
<path d="M44.1438 17.8963L38.3103 21.4701L39.8962 14.8003L34.7057 10.3405L41.5188 9.79296L44.1438 3.46161L46.7688 9.79296L53.5828 10.3405L48.3914 14.8003L49.9773 21.4701L44.1438 17.8963Z" fill="#FF9900"/>
</g>
<g clip-path="url(#clip3_74:718)">
<path d="M75.4054 17.8963L69.5719 21.4701L71.1578 14.8003L65.9673 10.3405L72.7804 9.79296L75.4054 3.46161L78.0304 9.79296L84.8444 10.3405L79.653 14.8003L81.2389 21.4701L75.4054 17.8963Z" fill="#FF9900"/>
</g>
<g clip-path="url(#clip4_74:718)">
<path d="M106.667 17.8963L100.834 21.4701L102.419 14.8003L97.229 10.3405L104.042 9.79296L106.667 3.46161L109.292 9.79296L116.106 10.3405L110.915 14.8003L112.501 21.4701L106.667 17.8963Z" fill="#FF9900"/>
</g>
<defs>
<clipPath id="clip0_74:718">
<rect width="23.8184" height="23.8919" fill="white" transform="translate(126.019 0.9729)"/>
</clipPath>
<clipPath id="clip1_74:718">
<rect width="23.8184" height="23.8919" fill="white" transform="translate(0.972961 0.972961)"/>
</clipPath>
<clipPath id="clip2_74:718">
<rect width="23.8184" height="23.8919" fill="white" transform="translate(32.2346 0.9729)"/>
</clipPath>
<clipPath id="clip3_74:718">
<rect width="23.8184" height="23.8919" fill="white" transform="translate(63.4962 0.9729)"/>
</clipPath>
<clipPath id="clip4_74:718">
<rect width="23.8184" height="23.8919" fill="white" transform="translate(94.7578 0.9729)"/>
</clipPath>
</defs>
</svg>
