<svg width="173" height="32" viewBox="0 0 173 32" fill="none" xmlns="http://www.w3.org/2000/svg">
<path d="M68.3725 6.28394H64.7485V22.4472H74.7809V19.2801H68.3725V6.28394Z" fill="#252160"/>
<path d="M75.127 16.9649C75.127 20.416 77.4694 22.7094 81.005 22.7094C84.5185 22.7094 86.8609 20.416 86.8609 16.9649C86.8609 13.5138 84.5185 11.1985 81.005 11.1985C77.4694 11.1985 75.127 13.5138 75.127 16.9649ZM78.5521 16.943C78.5521 15.3049 79.5244 14.2128 81.005 14.2128C82.4634 14.2128 83.4358 15.3049 83.4358 16.943C83.4358 18.6031 82.4634 19.6952 81.005 19.6952C79.5244 19.6952 78.5521 18.6031 78.5521 16.943Z" fill="#252160"/>
<path d="M87.4083 16.7901C87.4083 20.0882 89.574 22.3161 92.6455 22.3161C94.1261 22.3161 95.4077 21.7919 96.0485 20.9401V22.4472C96.0485 23.9543 95.0983 24.959 93.4189 24.959C91.9163 24.959 90.8776 24.2601 90.8114 23.0151H87.3641C87.6735 26.0075 90.0159 28.0169 93.22 28.0169C96.9987 28.0169 99.3853 25.5925 99.3853 21.7482V11.5261H96.3137L96.137 12.64C95.5182 11.7445 94.2144 11.1548 92.7119 11.1548C89.6181 11.1548 87.4083 13.4482 87.4083 16.7901ZM90.8556 16.7027C90.8556 15.13 91.9163 14.0816 93.2642 14.0816C94.8332 14.0816 95.9823 15.1082 95.9823 16.7027C95.9823 18.2972 94.8552 19.3893 93.2863 19.3893C91.9384 19.3893 90.8556 18.2972 90.8556 16.7027Z" fill="#252160"/>
<path d="M100.377 16.9649C100.377 20.416 102.72 22.7094 106.255 22.7094C109.769 22.7094 112.111 20.416 112.111 16.9649C112.111 13.5138 109.769 11.1985 106.255 11.1985C102.72 11.1985 100.377 13.5138 100.377 16.9649ZM103.802 16.943C103.802 15.3049 104.774 14.2128 106.255 14.2128C107.713 14.2128 108.686 15.3049 108.686 16.943C108.686 18.6031 107.713 19.6952 106.255 19.6952C104.774 19.6952 103.802 18.6031 103.802 16.943Z" fill="#252160"/>
<path d="M115.045 9.82239C116.105 9.82239 116.967 8.97054 116.967 7.90027C116.967 6.83 116.105 6 115.045 6C113.962 6 113.1 6.83 113.1 7.90027C113.1 8.97054 113.962 9.82239 115.045 9.82239ZM113.321 22.4472H116.747V11.5261H113.321V22.4472Z" fill="#252160"/>
<path d="M118.741 27.6892H122.1V21.355C122.74 22.185 124.199 22.7529 125.723 22.7529C129.016 22.7529 131.005 20.2629 130.916 16.8118C130.827 13.2952 128.773 11.1765 125.701 11.1765C124.132 11.1765 122.652 11.8536 122.033 12.8584L121.856 11.526H118.741V27.6892ZM122.165 16.9865C122.165 15.3484 123.27 14.2563 124.861 14.2563C126.474 14.2563 127.491 15.3702 127.491 16.9865C127.491 18.6029 126.474 19.7168 124.861 19.7168C123.27 19.7168 122.165 18.6247 122.165 16.9865Z" fill="#252160"/>
<path d="M131.279 18.996C131.367 21.2021 133.135 22.731 135.919 22.731C138.593 22.731 140.45 21.3331 140.45 19.0834C140.45 17.4671 139.477 16.3968 137.665 15.9599L135.699 15.4794C134.992 15.3047 134.55 15.1299 134.55 14.562C134.55 13.9941 135.013 13.6228 135.699 13.6228C136.472 13.6228 136.98 14.1252 136.958 14.8678H140.03C139.941 12.5962 138.196 11.1765 135.765 11.1765C133.312 11.1765 131.478 12.6181 131.478 14.8023C131.478 16.2657 132.295 17.4671 134.483 18.035L136.427 18.5373C137.002 18.6902 137.245 18.9523 137.245 19.3236C137.245 19.8697 136.737 20.2192 135.875 20.2192C134.88 20.2192 134.35 19.7605 134.35 18.996H131.279Z" fill="#252160"/>
<path d="M145.658 22.7311C147.007 22.7311 148.354 22.1195 149.039 21.224L149.261 22.4472H152.465V11.5261H149.061V17.2051C149.061 18.8432 148.576 19.7387 147.007 19.7387C145.79 19.7387 144.995 19.1927 144.995 17.1614V11.5261H141.592V18.3845C141.592 20.9838 143.051 22.7311 145.658 22.7311Z" fill="#252160"/>
<path d="M157.861 22.4472V16.4843C157.861 14.6495 158.856 14.1253 159.828 14.1253C160.91 14.1253 161.617 14.7806 161.617 16.1348V22.4472H164.976V16.4843C164.976 14.6277 165.949 14.1035 166.921 14.1035C168.003 14.1035 168.733 14.7587 168.733 16.1348V22.4472H172.048V15.3048C172.048 12.8148 170.722 11.1548 167.871 11.1548C166.28 11.1548 164.976 11.9192 164.402 13.0987C163.739 11.9192 162.59 11.1548 160.755 11.1548C159.54 11.1548 158.413 11.7008 157.751 12.5745L157.618 11.5261H154.435V22.4472H157.861Z" fill="#252160"/>
<path d="M0 16C0 7.16344 7.24722 0 16.1871 0H37.4327C46.3727 0 53.6199 7.16344 53.6199 16V32H16.1871C7.24722 32 0 24.8366 0 16Z" fill="#252160"/>
<path d="M37.4328 6H16.1871C10.5997 6 6.07019 10.4772 6.07019 16C6.07019 21.5228 10.5997 26 16.1871 26H37.4328C43.0202 26 47.5497 21.5228 47.5497 16C47.5497 10.4772 43.0202 6 37.4328 6Z" fill="#A5B4FC"/>
<path d="M16.1871 21C18.9809 21 21.2456 18.7614 21.2456 16C21.2456 13.2386 18.9809 11 16.1871 11C13.3934 11 11.1287 13.2386 11.1287 16C11.1287 18.7614 13.3934 21 16.1871 21Z" fill="black"/>
<path d="M14.1637 15C14.7225 15 15.1754 14.5523 15.1754 14C15.1754 13.4477 14.7225 13 14.1637 13C13.605 13 13.152 13.4477 13.152 14C13.152 14.5523 13.605 15 14.1637 15Z" fill="white"/>
<path d="M38.4445 21C41.2382 21 43.5029 18.7614 43.5029 16C43.5029 13.2386 41.2382 11 38.4445 11C35.6507 11 33.386 13.2386 33.386 16C33.386 18.7614 35.6507 21 38.4445 21Z" fill="black"/>
<path d="M36.4211 15C36.9798 15 37.4328 14.5523 37.4328 14C37.4328 13.4477 36.9798 13 36.4211 13C35.8623 13 35.4094 13.4477 35.4094 14C35.4094 14.5523 35.8623 15 36.4211 15Z" fill="white"/>
</svg>
