<svg width="15" height="14" viewBox="0 0 15 14" fill="none" xmlns="http://www.w3.org/2000/svg">
<path d="M0.995396 7.82572H11.6585L8.39485 11.7457C8.31928 11.8366 8.26236 11.9415 8.22734 12.0544C8.19232 12.1674 8.17988 12.2861 8.19074 12.4038C8.21266 12.6415 8.32812 12.8608 8.51173 13.0134C8.69533 13.166 8.93204 13.2395 9.16979 13.2175C9.40753 13.1956 9.62682 13.0802 9.77943 12.8965L14.2748 7.50205C14.3051 7.45914 14.3321 7.41407 14.3558 7.36719C14.3558 7.32223 14.4007 7.29526 14.4187 7.25031C14.4595 7.14722 14.4808 7.03748 14.4816 6.92664C14.4808 6.81579 14.4595 6.70605 14.4187 6.60297C14.4187 6.55801 14.3737 6.53104 14.3558 6.48609C14.3321 6.43921 14.3051 6.39413 14.2748 6.35122L9.77943 0.956728C9.6949 0.855237 9.58904 0.773618 9.46939 0.717677C9.34973 0.661735 9.21922 0.632844 9.08714 0.633058C8.87707 0.632648 8.67348 0.705811 8.51173 0.839847C8.42069 0.915325 8.34543 1.00802 8.29027 1.11263C8.23511 1.21723 8.20113 1.33169 8.19027 1.44945C8.17941 1.56721 8.1919 1.68595 8.227 1.79888C8.2621 1.91181 8.31914 2.0167 8.39485 2.10755L11.6585 6.02755H0.995396C0.756945 6.02755 0.52826 6.12228 0.359649 6.29089C0.191038 6.4595 0.0963135 6.68819 0.0963135 6.92664C0.0963135 7.16509 0.191038 7.39377 0.359649 7.56238C0.52826 7.73099 0.756945 7.82572 0.995396 7.82572Z" fill="#252160"/>
</svg>
